<svg id="Layer_1" data-name="Layer 1" xmlns="http://www.w3.org/2000/svg" viewBox="0 0 347.01 65.5"><defs><style>.cls-1{fill:#0054a6;fill-rule:evenodd;}</style></defs><title>logo-creighton</title><path class="cls-1" d="M345.39,38.94l0-13.08H347l0,13.08Zm-6.57.21a4.24,4.24,0,0,1-4.28-4.58c0-3,1.95-4.74,4.42-4.74s4.29,1.85,4.3,4.58A4.37,4.37,0,0,1,338.82,39.15Zm.1-8.1c-1.92,0-2.74,1.77-2.74,3.47,0,1.95,1.13,3.42,2.71,3.42s2.71-1.46,2.7-3.47C341.59,33,340.83,31,338.92,31.05Zm-10.3,8.12a4.24,4.24,0,0,1-4.28-4.58c0-3,2-4.74,4.41-4.74s4.3,1.85,4.3,4.58A4.36,4.36,0,0,1,328.62,39.17Zm.1-8.11c-1.92,0-2.74,1.77-2.74,3.47,0,1.95,1.13,3.42,2.71,3.42s2.71-1.46,2.7-3.47C331.39,33,330.63,31.06,328.72,31.06Zm-8.08,2.79c0-1.44-.54-2.65-2.07-2.65a2.32,2.32,0,0,0-2.17,1.62,2,2,0,0,0-.11.77V39h-1.62l0-13.08h1.62v5.56h0a3,3,0,0,1,1.16-1.14,3.3,3.3,0,0,1,1.66-.46c1.2,0,3.12.73,3.12,3.81V39h-1.62Zm-10.17-2.67a3.08,3.08,0,0,0-3.14,3.38,3.06,3.06,0,0,0,3.1,3.33,4.65,4.65,0,0,0,2-.44l.28,1.22a6,6,0,0,1-2.56.52,4.23,4.23,0,0,1-4.44-4.54,4.52,4.52,0,0,1,4.78-4.74,5.43,5.43,0,0,1,2.25.46l-.37,1.25A3.58,3.58,0,0,0,310.47,31.18ZM304,35.61c0,1.91-1.41,3.58-4.34,3.58a6.43,6.43,0,0,1-3.17-.79l.4-1.35a5.71,5.71,0,0,0,2.88.81c1.64,0,2.6-.87,2.59-2.12s-.66-1.82-2.34-2.47c-2-.72-3.28-1.76-3.28-3.51,0-1.94,1.6-3.37,4-3.38a5.66,5.66,0,0,1,2.74.6l-.44,1.31a5,5,0,0,0-2.36-.59c-1.7,0-2.34,1-2.34,1.86,0,1.16.76,1.73,2.47,2.39C302.93,32.77,304,33.78,304,35.61Zm-19.35-.75A2.86,2.86,0,0,0,287.71,38a6,6,0,0,0,2.47-.46l.28,1.16a7.17,7.17,0,0,1-3,.56,4.14,4.14,0,0,1-4.39-4.49c0-2.69,1.58-4.81,4.18-4.81,2.91,0,3.69,2.56,3.69,4.2,0,.33,0,.59-.05.76Zm2.5-3.8a2.67,2.67,0,0,0-2.48,2.64h4.74A2.32,2.32,0,0,0,287.15,31.06Zm-7.53,5.1c0,1.1.32,1.73,1.22,1.73a3.87,3.87,0,0,0,.94-.11l.08,1.22a3.94,3.94,0,0,1-1.44.22,2.25,2.25,0,0,1-1.75-.68,3.3,3.3,0,0,1-.63-2.32V31.36h-1.38V30.12H278V28l1.58-.43v2.56h2.32v1.23h-2.32Zm-6,1.76h-.06a3.32,3.32,0,0,1-2.73,1.33,2.55,2.55,0,0,1-2.73-2.56c0-2.16,1.91-3.34,5.36-3.32v-.18a1.84,1.84,0,0,0-2-2.06,4.41,4.41,0,0,0-2.32.67l-.37-1.07a5.52,5.52,0,0,1,2.93-.8c2.73,0,3.39,1.86,3.39,3.64V36.9a12.67,12.67,0,0,0,.15,2.14h-1.47Zm-.11-3.43c-1.77,0-3.78.28-3.77,2a1.44,1.44,0,0,0,1.53,1.55,2.2,2.2,0,0,0,2.15-1.5,1.89,1.89,0,0,0,.09-.52Zm-8.93,3.1h0a3.34,3.34,0,0,1-2.95,1.66c-1.4,0-3.08-.77-3.08-3.9V30.14h1.62v4.94c0,1.69.52,2.84,2,2.83a2.35,2.35,0,0,0,2.14-1.48,2.19,2.19,0,0,0,.14-.83V30.13H266v6.49c0,.92,0,1.73.08,2.43h-1.44Zm-10.23-.07h0a3.31,3.31,0,0,1-3,1.76c-2.15,0-3.82-1.82-3.82-4.53,0-3,1.82-4.79,4-4.8a3,3,0,0,1,2.69,1.36h0V26h1.62V36.77c0,.79,0,1.69.08,2.3h-1.46Zm-.18-3.74a3.14,3.14,0,0,0-.07-.68,2.39,2.39,0,0,0-2.34-1.88c-1.68,0-2.67,1.48-2.67,3.45,0,1.81.89,3.3,2.64,3.3A2.42,2.42,0,0,0,254.07,36a2.6,2.6,0,0,0,.07-.7ZM243.91,38h0a3.32,3.32,0,0,1-2.73,1.33,2.55,2.55,0,0,1-2.73-2.56c0-2.16,1.91-3.34,5.36-3.32v-.18a1.83,1.83,0,0,0-2-2.06,4.41,4.41,0,0,0-2.32.67L239,30.77A5.61,5.61,0,0,1,242,30c2.73,0,3.39,1.86,3.39,3.64V37a12.67,12.67,0,0,0,.15,2.14H244Zm-.11-3.43c-1.77,0-3.78.28-3.78,2a1.44,1.44,0,0,0,1.53,1.55,2.2,2.2,0,0,0,2.15-1.5,1.89,1.89,0,0,0,.09-.52V34.53Zm-9-1a4.28,4.28,0,0,0-.07.76v4.75h-1.6V33c0-1.05,0-2-.08-2.78h1.42l.06,1.75h.08A2.68,2.68,0,0,1,237,30a1.65,1.65,0,0,1,.46.06v1.53a2.2,2.2,0,0,0-.55-.06A2.29,2.29,0,0,0,234.76,33.58Zm-8,5.65a6.36,6.36,0,0,1-4.64-1.63A6.38,6.38,0,0,1,220.41,33c0-3.7,2.55-6.42,6.71-6.42a7.68,7.68,0,0,1,3.1.57l-.39,1.31a6.49,6.49,0,0,0-2.74-.53,4.65,4.65,0,0,0-5,5c0,3.15,1.9,5,4.8,5a5.33,5.33,0,0,0,2.14-.33v-3.7h-2.52V32.59h4.09v6A11.83,11.83,0,0,1,226.79,39.23ZM196.32,0h1.26V65.5h-1.26ZM91.49,41h81.33v1.26H91.49Zm79.62-5.72c-.46,0-1.58-.2-3.32-.2-1.43,0-2.51.21-3.22.21s-.86,0-.86-.51c0-1.12,2.65.1,2.65-2.66V21.89c0-5.32-1.19-8-4.7-8s-5.21,3-5.2,8.9v9.35c0,2.81,2.65,1.53,2.65,2.65,0,.47-.2.51-.77.51s-1.58-.2-3.31-.2c-1.28,0-2.4.21-3.33.21-.56,0-.76,0-.76-.51,0-1.07,2.65.05,2.65-2.66l0-14.81c0-2-2-.88-2-1.75,0-.61.88-.66,1.64-1.22,1.73-1.23,2.44-2.52,2.81-2.52s.31.47.31,1.23v2.4c0,.41.09.56.2.56s.77-1.22,2.05-2.35a6.23,6.23,0,0,1,4.33-1.85c3.78,0,6.34,3,6.35,7.76l0,12.52c0,2.81,2.67,1.53,2.67,2.65C171.88,35.27,171.66,35.31,171.11,35.31Zm-33.13,1c-5.82,0-9.76-4.94-9.77-12.19s4.21-12.18,10-12.18c6.44,0,10.22,4.83,10.23,12.1S144.48,36.27,138,36.28Zm.33-23.45c-4.24,0-6.94,3.83-6.93,11s2.88,11.54,6.86,11.54c4.34,0,6.94-3.74,6.93-10.75C145.15,17.11,142.45,12.82,138.31,12.83ZM121.39,36.3c-2.66,0-4.2-2.14-4.2-6.23v-2.4l.14-12.22c0-.66-.11-.86-.71-.86h-.78c-.5,0-.77-.21-.77-.47,0-.56,1.23-1.12,2.71-2.91s1.78-3.27,2.24-3.27c.1,0,.21.25.21.6V12c0,.66.1.87.71.87h3.78c.62,0,.67.15.67.66v.21c0,.61-.11.87-.66.87H120.9c-.61,0-.71.2-.71.86l0,14.93c0,2.6.81,3.87,2.44,3.87s3.07-1.89,3.43-1.89c.11,0,.21.21.21.41C126.28,33.48,124,36.3,121.39,36.3ZM112,35.39c-.46,0-1.58-.2-3.32-.2-1.43,0-2.5.21-3.22.21s-.86,0-.87-.51c0-1.12,2.7.1,2.7-2.66V22c0-5.32-1.29-8-4.91-8C98.52,14,97,17.07,97,22.89v9.36c0,2.81,2.66,1.53,2.66,2.65,0,.47-.2.51-.76.51s-1.58-.2-3.33-.2c-1.43,0-2.5.21-3.22.21s-.87,0-.87-.51c0-1.12,2.65.1,2.65-2.66l0-27.09c0-1.48-.56-2.29-1.58-2.29a4.26,4.26,0,0,1-.57,0,.47.47,0,0,1-.36-.45c0-.71,1-.67,2-1C95.37.82,96.3,0,96.6,0S97,.41,97,1.13l0,14.46c0,.41,0,.56.15.56.26,0,.77-1.17,2.1-2.35A6.23,6.23,0,0,1,103.68,12c3.78,0,6.44,3.06,6.45,7.5l0,12.78c0,2.81,2.65,1.53,2.65,2.65C112.79,35.35,112.59,35.39,112,35.39ZM89.16,15.91H88.8l-2.45-.1a9.71,9.71,0,0,1,1.08,4.39c0,4.6-2.85,7.67-7.56,8.08-3.58.31-4.81,1.38-4.8,2.15,0,.56.87,1.62,2.87,1.62.91,0,2-.1,3.12-.11q8.58,0,8.58,6.12c0,4.59-4.58,8.53-10.92,8.54-5.57,0-8.58-2.24-8.59-5.55,0-3.62,4.69-5.31,4.69-6.28,0-.16-.21-.36-.46-.66l-1.9-2.2a2.8,2.8,0,0,1-.71-1.17c0-.25.41-.5,1.12-.87l3.06-1.58c.31-.16.46-.31.45-.41,0-.36-4.49-2.4-4.5-7.71,0-4.6,3.15-8.19,7.56-8.2,3.21,0,5.06,2,7,2a5.48,5.48,0,0,0,.66,0l1.22-.1c.11,0,.36,0,.67,0,.77,0,1,.3,1,1.38C89.93,15.75,89.77,15.91,89.16,15.91ZM73.09,40.08c0,3,2.32,5.4,6.24,5.4,4.65,0,7.57-2.36,7.56-5.72,0-3.1-2.21-4.84-6.39-4.84-2.71,0-4.55.42-5.21.93A5.82,5.82,0,0,0,73.09,40.08ZM79.7,13C77,13,75,15.77,75,20.17s2,7,4.71,7,4.64-2.76,4.64-7S82.47,13,79.7,13ZM68.34,35.45c-.41,0-1.63-.2-3.57-.2-1.59,0-2.76.21-3.53.21-.56,0-.87-.05-.87-.51,0-1.07,3.06.1,3.06-2.66l0-14c0-1.23-.47-1.88-1.59-1.88-.57,0-.93-.06-.93-.51,0-.67,1-.77,1.84-1.49,1.89-1.07,2.76-2.15,3.17-2.15s.36.26.36,1l0,19.06c0,2.81,2.81,1.53,2.81,2.65C69.11,35.45,68.9,35.45,68.34,35.45ZM64.67,8.23c-1,0-1.78-1.13-1.79-2.45s.86-2.56,1.78-2.56S66.5,4.44,66.5,5.77,65.7,8.23,64.67,8.23Zm-8,12.83-12.16,0c-.87,0-1,.46-1,2.15C43.56,30,46.89,34,51.48,34c4.19,0,5.72-3.28,6.18-3.28.25,0,.36.16.36.42,0,1.48-3.11,5.26-8.08,5.27-5.62,0-9.55-4.73-9.56-12.15S45,12,50.48,12a7.68,7.68,0,0,1,7.73,8C58.21,20.75,57.8,21.06,56.68,21.06ZM50.18,13C46.85,13,44,16.58,44,19.38a.55.55,0,0,0,.56.46h4.19c4.2,0,6.13-.31,6.13-2.25A4.87,4.87,0,0,0,50.18,13ZM37.56,16.74c-1.38,0-1.88-2-3.47-2s-3.37,2.41-3.36,8.13v8.43c0,1.74.15,2.36,1.18,2.76,1.74.67,2.75,0,2.76.92,0,.41-.25.56-.81.57-.88,0-2.46-.25-4.56-.25-1.37,0-2.49.21-3.31.21-.57,0-.77-.05-.77-.51,0-.72.51-.41,1.64-.81.86-.31,1-1.08,1-2.87l0-13.54c0-2.45-2-1.07-2.05-2,0-.56.87-.71,1.74-1.33,1.58-1.07,2.3-2.41,2.71-2.41s.31.47.31,1.23v2.91c0,.21.1.36.2.36a.55.55,0,0,0,.36-.25L32.05,15c1.43-2,3-2.92,4.54-2.93a2.43,2.43,0,0,1,2.71,2.4A2.12,2.12,0,0,1,37.56,16.74ZM13.67,36.45C5.86,36.46,0,29.21,0,19.4s6.22-17,14.09-17c3.36,0,6.39,1.17,7,1.88.3.4.56,2.3.57,5.42,0,.36-.2.66-.46.66-.66,0-.61-1.23-1.49-2.8-1.38-2.56-3.27-3.79-6-3.78C8.32,3.75,4,9.59,4,19.39,4,28.49,8.46,35,13.88,35c3.22,0,5.17-2,6.53-5.73.57-1.48.57-2.4,1.08-2.4.3,0,.51.31.51.88,0,3.36-.05,5.2-.45,5.82C20.67,34.75,17.71,36.44,13.67,36.45ZM.56,48.68a4.24,4.24,0,0,1,.51.06,9.7,9.7,0,0,0,1.47.13,9.23,9.23,0,0,0,1.61-.14,3.47,3.47,0,0,1,.46,0,.5.5,0,0,1,.52.5c0,.46-.37.49-.69.51a4.12,4.12,0,0,0-.45.05c-.41.09-.42.16-.42.91v8.11c0,2.73.48,4.21,3,4.21a3.16,3.16,0,0,0,2.73-1.19c.55-.79.59-1.86.59-3.54v-5c0-1.84,0-3.08-.35-3.42a.8.8,0,0,0-.43-.1c-.28,0-.7-.07-.7-.52a.47.47,0,0,1,.52-.5l.3,0c.24,0,.6.05,1.06.05a11.61,11.61,0,0,0,1.19-.06h.19c.37,0,.59.19.59.5,0,.5-.49.5-.78.5-.65,0-.72.65-.72,3.18v5.39a7.75,7.75,0,0,1-.62,3.9A4,4,0,0,1,6.38,64c-2,0-3.4-.57-4.14-1.76a6.31,6.31,0,0,1-.62-3.4V50.64c0-.75-.06-.78-.38-.88a2.58,2.58,0,0,0-.52-.07c-.3,0-.67,0-.67-.51A.51.51,0,0,1,.56,48.68ZM21.29,62.47h.43c.63,0,.66-.76.66-3.13V50.62c0-.71-.06-.79-.33-.88a1.91,1.91,0,0,0-.49-.08c-.26,0-.61,0-.61-.5a.46.46,0,0,1,.48-.5h2.09a.67.67,0,0,1,.71.39l6.14,10.24v0h0v-6.1c0-1.94,0-3.12-.33-3.41a.94.94,0,0,0-.55-.14c-.27,0-.69,0-.69-.48,0-.26.22-.52.7-.53l.49,0c.23,0,.5,0,.8,0s.67,0,.92,0l.45,0c.49,0,.71.26.71.52,0,.48-.4.48-.6.48H32c-.67,0-.74.58-.74,2.88V63.38a.32.32,0,0,1-.29.34c-.15,0-.28-.18-.34-.27L23.27,51.08v8.29c0,2.5.07,3.13.67,3.13h.1l.34,0a.51.51,0,0,1,.48.55c0,.26-.22.52-.73.52-.2,0-.4,0-.61,0a8.29,8.29,0,0,0-1.5,0c-.2,0-.38,0-.54,0-.66,0-.71-.44-.71-.57A.48.48,0,0,1,21.29,62.47Zm20.72,0a1.94,1.94,0,0,0,.4-.06c.63-.15.65-.22.64-1.23V50.59c0-.75-.06-.79-.37-.88a2.67,2.67,0,0,0-.53-.07c-.31,0-.69,0-.69-.51a.49.49,0,0,1,.52-.51,4.24,4.24,0,0,1,.51.06,9.57,9.57,0,0,0,1.47.13,9.23,9.23,0,0,0,1.61-.14,3.43,3.43,0,0,1,.47-.05.51.51,0,0,1,.53.5c0,.46-.38.49-.69.51a4,4,0,0,0-.44,0c-.44.09-.45.18-.45.91V61.14c0,1,0,1.08.64,1.22a2.5,2.5,0,0,0,.38.06c.29,0,.69.06.69.57,0,.24-.21.49-.69.49l-.52,0A12.94,12.94,0,0,0,44,63.37c-.6,0-1.1.05-1.46.08l-.54,0c-.51,0-.69-.29-.69-.55C41.32,62.48,41.72,62.44,42,62.42ZM.66,41H67.87v1.26H.66Zm54.92,7.66a10.36,10.36,0,0,0,1.33.11,4.5,4.5,0,0,0,.94-.12,1.61,1.61,0,0,1,.39-.06c.14,0,.46.05.46.52s-.36.5-.58.53-.48.07-.48.55a3,3,0,0,0,.2.79l2.82,8.76.05.12s0-.09,0-.15l2.42-8.06a5.55,5.55,0,0,0,.29-1.47c0-.45-.23-.51-.63-.58s-.66-.11-.66-.54c0-.23.15-.48.57-.48a2.88,2.88,0,0,1,.35,0,6.31,6.31,0,0,0,1.06.09,7.8,7.8,0,0,0,1.2-.1l.31,0c.52,0,.58.33.58.48,0,.41-.33.47-.57.51a.93.93,0,0,0-.67.34A9.37,9.37,0,0,0,64.25,52L61,62.67c-.31,1-.41,1.21-.64,1.21s-.31-.25-.52-1c-.09-.31-.2-.71-.35-1.18l-2.91-9a8.91,8.91,0,0,0-1.22-2.92.91.91,0,0,0-.53-.17c-.27,0-.63-.09-.63-.49a.54.54,0,0,1,.56-.52A4.64,4.64,0,0,1,55.58,48.69Zm19,13.69a1.59,1.59,0,0,0,.37-.06c.59-.14.61-.25.61-1.23l0-10.54c0-.72,0-.78-.38-.88a2.49,2.49,0,0,0-.51-.07c-.31,0-.69-.05-.69-.51,0-.15.06-.5.58-.5h7.44c.91,0,1.15,0,1.15,1v2c0,.23,0,.76-.42.76s-.44-.32-.57-.69a3.42,3.42,0,0,0-.46-1,2.65,2.65,0,0,0-2.32-1c-1.65,0-1.9.32-1.9,1.39v3.77a.53.53,0,0,0,0,.13h1.43a2.35,2.35,0,0,0,1.62-.4,1.64,1.64,0,0,0,.37-.85c0-.25.11-.57.47-.57s.42.2.43.59q0,.12,0,.39c0,.37-.07.92-.07,1.68,0,1.05,0,1.7,0,2,0,.09,0,.15,0,.18,0,.44-.21.59-.4.59-.36,0-.41-.33-.46-.65a3.32,3.32,0,0,0-.41-1.25,1.72,1.72,0,0,0-1.59-.7H77.58c-.14,0-.15,0-.15.24v4.94c0,.88.3,1.39,1.85,1.39a3,3,0,0,0,2.78-1.17,3.4,3.4,0,0,0,.49-1c.11-.34.22-.67.55-.67a.43.43,0,0,1,.4.35s0,.19,0,.44l-.2,2.16c-.08.74-.2,1-.84,1l-.65-.05c-.77-.07-2.06-.18-3.88-.18-1.47,0-2.43.08-3,.12l-.39,0c-.4,0-.67-.21-.67-.54S74.28,62.4,74.54,62.38Zm18.61,0c.53,0,.72-.21.72-.81v-.1a3.56,3.56,0,0,0,0-.37V50.53c0-.7,0-.79-.32-.88a1.67,1.67,0,0,0-.42-.07c-.26,0-.61,0-.61-.51,0-.15.06-.5.59-.51h.46c.48,0,1.17,0,2.17,0,.34,0,.73,0,1.17,0,3.1,0,4.6,1.2,4.61,3.69a3.46,3.46,0,0,1-2.75,3.63,4.29,4.29,0,0,1,1.12,1.84l1.33,3.17c.32.75.57,1.34.76,1.41a3,3,0,0,0,.45.15c.31.09.64.19.64.56a.39.39,0,0,1-.43.41l-.26,0-.34,0-.72,0-.41,0c-.63,0-.78-.3-1-.88l-2-4.78c-.49-1.18-.61-1.47-1.61-1.46h-.4a.63.63,0,0,0,0,.2v4.57c0,.93,0,1,.36,1.18a1.78,1.78,0,0,0,.51.12c.26,0,.62.06.62.55,0,.25-.21.5-.63.5l-.4,0a13.86,13.86,0,0,0-1.42-.08,11.38,11.38,0,0,0-1.46.09l-.36,0a.55.55,0,0,1-.62-.54C92.42,62.35,93,62.35,93.15,62.35Zm2.65-7.24a.55.55,0,0,0,0,.2h.58c2.21,0,3.28-.93,3.28-2.83s-.94-3-2.38-3-1.5.23-1.5,1ZM111.25,60c0-.29,0-1,.5-1s.4.4.43.82a4.58,4.58,0,0,0,.27,1.37,2.49,2.49,0,0,0,2.43,1.63,2.58,2.58,0,0,0,2.6-2.79c0-1.91-1-2.63-3-3.72s-3-2-3-4a3.89,3.89,0,0,1,4-4.19,4.73,4.73,0,0,1,2.82.8c.06.08.22.28.22,2.4,0,.48-.23.65-.43.65s-.41-.29-.5-.62a5.05,5.05,0,0,0-.22-.66,2.14,2.14,0,0,0-2.08-1.61A2.1,2.1,0,0,0,113,51.32c0,1.37.87,2.06,2.81,3.09s3.37,2.25,3.37,4.58a4.63,4.63,0,0,1-4.61,4.85,4.79,4.79,0,0,1-2.86-.87,1.66,1.66,0,0,1-.47-1.47c0-.41,0-.76,0-1A4.63,4.63,0,0,0,111.25,60Zm17.56,2.34a2.6,2.6,0,0,0,.39-.05c.64-.15.65-.23.65-1.23V50.48c0-.74-.06-.78-.38-.88a2.49,2.49,0,0,0-.52-.07c-.31,0-.68,0-.69-.51a.49.49,0,0,1,.51-.51,4.61,4.61,0,0,1,.52.06,9.57,9.57,0,0,0,1.47.13,9.44,9.44,0,0,0,1.61-.14,3.47,3.47,0,0,1,.46-.05.5.5,0,0,1,.53.5c0,.46-.38.49-.69.51a4,4,0,0,0-.44,0c-.42.09-.46.17-.46.91V61c0,1,0,1.09.65,1.23l.37.06c.29,0,.69.06.69.57,0,.25-.21.5-.69.5l-.53,0c-.35,0-.83-.08-1.45-.08s-1.09.05-1.45.08l-.55,0c-.5,0-.68-.29-.68-.55C128.13,62.36,128.52,62.33,128.81,62.31ZM141.89,51.1l.75-3c.06-.22.13-.47.45-.47a.36.36,0,0,1,.38.43v.23c0,.16.1.23,1.08.23h5.54a4.84,4.84,0,0,0,1.38-.11.67.67,0,0,0,.17-.31c.06-.17.14-.42.44-.42s.43.18.43.57v.07l-.17,3.19c0,.2,0,.53-.41.53s-.44-.33-.51-.69a5.11,5.11,0,0,0-.24-.9c-.27-.71-.68-1-2.3-1h-.6c-.08,0-.13,0-.13.33l0,11.44c0,.81,0,.92.63,1.06a1.68,1.68,0,0,0,.37.06c.3,0,.7.06.7.57,0,.24-.21.5-.68.5l-.54,0c-.36,0-.86-.08-1.47-.08s-1.09.05-1.44.08l-.54,0c-.41,0-.68-.21-.68-.55s.39-.5.68-.52a1.76,1.76,0,0,0,.39-.06c.63-.14.63-.2.63-1.23l0-11.28c0-.33,0-.33-.12-.33h-.86a2.66,2.66,0,0,0-2,1.26,5.27,5.27,0,0,0-.46.85c-.16.35-.29.64-.59.64s-.38-.22-.38-.53a2.13,2.13,0,0,1,.07-.44Zm18.47-2.63.32,0c.38,0,1.07.09,2.12.09a9.52,9.52,0,0,0,1.06,0H164a.43.43,0,0,1,.46.47c0,.42-.39.51-.64.57s-.42.12-.42.29a3,3,0,0,0,.34,1l2.49,4.62h0l0,0,2.26-4.11a6.36,6.36,0,0,0,.62-1.5c0-.24-.12-.29-.53-.35s-.73-.11-.73-.56c0-.22.14-.46.54-.46l.36,0a8.56,8.56,0,0,0,1.28.1,7.3,7.3,0,0,0,1-.08l.27,0a.44.44,0,0,1,.48.48c0,.48-.34.53-.62.57l-.3.06c-.4.12-.55.39-.76.77l-.07.14-3.35,6.16v4.46c0,.8,0,.9.48,1.07a1.65,1.65,0,0,0,.47.08c.29,0,.68,0,.68.56,0,.24-.21.5-.68.5l-.51,0c-.35,0-.82-.08-1.4-.08s-1.06.05-1.41.08l-.5,0c-.4,0-.66-.22-.66-.54a.47.47,0,0,1,.47-.5c1.13,0,1.13-.28,1.13-1.3V56.9l-3.41-6.4a2.21,2.21,0,0,0-.83-1,1,1,0,0,0-.27,0c-.22,0-.58,0-.58-.42A.57.57,0,0,1,160.36,48.47Z" transform="translate(0)"/></svg>