<svg xmlns="http://www.w3.org/2000/svg" width="24" height="24"><path d="M18 0a4 4 0 0 0-4 4c0 2.857 4 7 4 7s4-4.143 4-7a4 4 0 0 0-4-4zm0 2.57a1.43 1.43 0 1 1-.002 2.861A1.43 1.43 0 0 1 18 2.571zm-9.031.366l-5.34 2.136A.999.999 0 0 0 3 6v14a1 1 0 0 0 1.371.93l4.66-1.866 6 2 5.34-2.134c.38-.153.629-.521.629-.93v-7.414a24.526 24.526 0 0 1-1.563 1.805l-.437.453v4.48l-3 1.2V11.78a24.038 24.038 0 0 1-2-2.566v9.398l-4-1.332V5.387l2.428.808C12.166 5.46 12 4.718 12 4c0-.018.004-.035.004-.053L8.969 2.936zM8 5.476v11.846l-3 1.201V6.678l3-1.201z"/></svg>