<?xml version="1.0" encoding="utf-8"?>
<!-- Generator: Adobe Illustrator 23.1.1, SVG Export Plug-In . SVG Version: 6.00 Build 0)  -->
<svg version="1.1" id="Layer_1" xmlns="http://www.w3.org/2000/svg" xmlns:xlink="http://www.w3.org/1999/xlink" x="0px" y="0px"
	 viewBox="0 0 90.7 57.7" style="enable-background:new 0 0 90.7 57.7;" xml:space="preserve">
<style type="text/css">
	.st0{fill:#FFFFFF;}
</style>
<path d="M70.2,37.5c0,4.5,0.1,7.7,0,11c-0.2,5.8-3.1,9.1-8.8,9.1C44,57.7,26.5,57.7,9,57.6c-5.7,0-8.9-3.2-9-8.9
	C0,35.5,0,22.3,0.1,9.1c0.1-6,3.3-9.1,9.3-9.1C26.5,0,43.7,0,60.8,0.1c6.3,0,9.3,3.1,9.4,9.5c0.1,3.2,0,6.4,0,10.7
	C77.4,14.5,83.8,9.5,90.7,4c0,16.9,0,32.8,0,49.7C83.8,48.2,77.5,43.2,70.2,37.5z M61.8,49.3c0-13.7,0-27.1,0-40.7
	c-17.8,0-35.4,0-53,0c0,13.8,0,27.2,0,40.7C26.7,49.3,44.1,49.3,61.8,49.3z M82.1,36.2c0-5.3,0-9.7,0-14.8c-3.4,2.8-6.2,5-9.3,7.5
	C76,31.4,78.8,33.6,82.1,36.2z"/>
<path class="st0" d="M82.1,36.2c-3.3-2.6-6.1-4.8-9.3-7.4c3.1-2.5,5.9-4.7,9.3-7.5C82.1,26.5,82.1,30.9,82.1,36.2z"/>
</svg>
